<svg width="128" height="128" xmlns="http://www.w3.org/2000/svg" shape-rendering="geometricPrecision" text-rendering="geometricPrecision" image-rendering="optimizeQuality" fill-rule="evenodd" clip-rule="evenodd">
 <title>4D_128</title>

 <g fill="#007aff" >
  <g id="icon" stroke-width="0" stroke="#ffffff">
   <rect id="rect" ry="128" rx="128" height="128" width="128" stroke="null"/>
   <g stroke="null" id="4d_text">
    <path stroke="null" stroke-width="2" id="path_1" fill="#ffffff" d="m34.04515,75.14789c15.24033,-17.78218 21.34944,-19.79505 15.1387,-2.64987c-6.21073,17.14518 -5.06727,48.63929 4.47833,38.42383c9.46185,-10.2992 11.1813,-31.17171 3.24395,-19.65568c-7.93735,11.51604 -8.08795,5.98849 -0.22904,-18.15785c7.85891,-24.14634 -3.41759,-27.68901 -18.80719,-13.53527c-15.38959,14.15374 -9.41054,-27.2844 32.37235,-40.26305c41.78287,-12.89492 -14.61894,-13.14877 -38.27077,17.67963c-23.65183,30.8284 -13.16665,55.94045 2.07368,38.15826z"/>
   </g>
  </g>
  <g transform="rotate(5.00452 87.7045 54.4345)" id="svg_3">
   <path  stroke="#ffffff" stroke-width="2" transform="rotate(-6.82703 87.7045 54.4345)" id="svg_2" d="m77.12452,29.16954c0,0 -12.49916,41.49749 -12.43905,50.57461c1.71943,10.53564 20.35401,7.24117 29.54365,3.30107c9.18965,-3.94011 14.56396,-17.29158 15.87355,-22.09871c1.30958,-4.80712 1.09038,-20.44754 -6.10368,-29.54414c-7.19406,-9.0966 -22.1088,-14.45783 -26.87447,-2.23283z" fill="#ffffff"/>
   <path transform="rotate(-6.82703 88.6165 54.7235)" id="svg_1" d="m82.05896,39.06412c0,0 -7.74706,25.72042 -7.70981,31.34647c1.06571,6.53006 12.61555,4.48813 18.31135,2.04602c5.6958,-2.4421 9.02684,-10.71743 9.83853,-13.69692c0.81169,-2.97949 0.67583,-12.67352 -3.7831,-18.31165c-4.45892,-5.63813 -13.70318,-8.96106 -16.65697,-1.38392z"/>
  </g>
 </g>
</svg>