<svg width="16" height="16" xmlns="http://www.w3.org/2000/svg" clip-rule="evenodd" fill-rule="evenodd" image-rendering="optimizeQuality" text-rendering="geometricPrecision" shape-rendering="geometricPrecision">
 <title>4D_Icon</title>

 <g id="icon" fill="#007aff" stroke="#ffffff" stroke-width="0">
  <rect id="rect" width="16" height="16" rx="2" ry="2"/>
  <path id="path" stroke-width="0.6" d="m2.11,7.43c3.22,-2.35 -3.14,-6.77 0.69,-5.96c3.83,0.81 8.06,-1.87 10.89,-0.19c2.84,1.68 2.27,8.57 -1.24,8.02c-3.52,-0.55 -1.51,2.42 0.87,4.36c2.38,1.93 -2.09,1.37 -6.52,1.39c-4.43,0.03 1.36,-3.71 -2.38,-3.25c-3.74,0.46 -5.52,-2.01 -2.31,-4.36l0,0l0,0l0,0z"/>
  <g id="4d_text">
   <path id="path_1" fill="#ffffff" d="m5.16,5.18c-2.47,4 -0.37,6.80 1.66,3.57c2.03,-3.22 1.08,-0.01 0.81,1.33c-0.27,1.34 0.04,4.50 1.18,3.28c1.13,-1.23 1.07,-5.02 0.24,-2.20c-0.82,2.83 -0.91,-0.60 -0.07,-4.77c0.84,-4.17 -1.25,-0.44 -2.97,1.84c-1.72,2.28 -1.48,-3.86 3.51,-5.41c4.99,-1.54 -1.88,-1.64 -4.35,2.36z"/>
   <path id="path_2" fill="#ffffff" d="m9.96,4.40c-0.56,2.35 -0.56,2.20 -0.65,3.08c-0.09,0.88 1.50,0.59 2.37,0.31c0.87,-0.28 1.56,-0.85 1.73,-1.58c0.17,-0.74 0.30,-1.44 -0.37,-2.35c-0.68,-0.91 -2.51,-1.80 -3.07,0.54z"/>
   <path id="path_3" d="m10.62,4.79c-0.32,1.43 -0.32,1.34 -0.38,1.87c-0.05,0.54 0.86,0.36 1.37,0.19c0.51,-0.17 0.90,-0.51 1.00,-0.96c0.10,-0.45 0.18,-0.87 -0.21,-1.43c-0.39,-0.55 -1.45,-1.09 -1.77,0.33z"/>
  </g>
 </g>
</svg>
