<svg width="16" height="16" xmlns="http://www.w3.org/2000/svg" clip-rule="evenodd" fill-rule="evenodd" image-rendering="optimizeQuality" text-rendering="geometricPrecision" shape-rendering="geometricPrecision">
 <title>turn-left</title>

 <g>
  <title>Layer 1</title>
  <path fill="#000000" id="svg_1" d="m7.2555,8.14548l0.36683,2.39668c0.01325,0.08993 -0.01112,0.18483 -0.0755,0.25867c-0.11644,0.13348 -0.31949,0.14768 -0.45297,0.03124l-4.90056,-4.26891l-0.03621,-0.03763c-0.11289,-0.13632 -0.09372,-0.3389 0.0426,-0.45155l4.90056,-4.05497c0.07076,-0.05704 0.16472,-0.08496 0.26104,-0.06792c0.17371,0.031 0.2892,0.19761 0.2582,0.37132l-0.36541,2.03127c0.42528,0.04946 0.88961,0.15549 1.3672,0.31618c1.24626,0.41866 2.60234,1.21668 3.6285,2.37443c1.03634,1.16887 1.73828,2.70292 1.6609,4.58202c-0.02769,0.68443 -0.15998,1.41358 -0.41724,2.18534c-0.03171,0.12519 -0.13774,0.22388 -0.27334,0.23998c-0.17608,0.02083 -0.33582,-0.10508 -0.35641,-0.28092c-0.28257,-2.36875 -1.19585,-3.74187 -2.32521,-4.53918c-1.0096,-0.71283 -2.20546,-0.97883 -3.28298,-1.08604z" fill-rule="nonzero"/>
 </g>
</svg>