<svg width="16" height="16" xmlns="http://www.w3.org/2000/svg" version="1.1" xml:space="preserve">
 <title>pin</title>

 <g>
  <title>Layer 1</title>
  <path class="st1" d="m6.13419,12.18241c0.52627,0.83822 1.0954,1.85385 1.65739,2.84091c0.20836,0.36434 0.39649,0.41911 0.64653,-0.0131c0.54294,-0.94181 1.07635,-1.91696 1.63834,-2.82662c1.70621,-2.76113 4.4983,-5.45321 2.27773,-9.16925c-1.97173,-3.29931 -7.33444,-2.94687 -8.93826,0.12502c-1.83837,3.52077 1.0323,6.3593 2.71827,9.04304l0,0z" fill-rule="evenodd" clip-rule="evenodd" fill="#000000" id="svg_2"/>
  <path class="st0" d="m7.99757,3.59359c1.1085,0 2.00745,0.89895 2.00745,2.00745s-0.89895,2.00745 -2.00745,2.00745c-1.1085,0 -2.00745,-0.89895 -2.00745,-2.00745s0.89895,-2.00745 2.00745,-2.00745l0,0z" fill-rule="evenodd" clip-rule="evenodd" fill="#ffffff" id="svg_3"/>
 </g>
</svg>