<svg width="16" height="16" xmlns="http://www.w3.org/2000/svg" xml:space="preserve" version="1.1">
 <title>screenshot</title>

 <g>
  <title>Layer 1</title>
  <g stroke="null" id="svg_1">
   <path fill="#000000" id="svg_2" d="m2.56868,12.12791l0,1.32612l1.40256,0l0,1.35271l-2.07947,0c-0.37335,0 -0.6758,-0.30245 -0.6758,-0.6758l0,-2.00302l1.35271,0l0,0zm1.73713,-8.65909l7.49361,0c0.37335,0 0.6758,0.30245 0.6758,0.6758l0,7.72515c0,0.37335 -0.30245,0.6758 -0.6758,0.6758l-7.49361,0c-0.37335,0 -0.6758,-0.30245 -0.6758,-0.6758l0,-7.72515c0,-0.37335 0.30245,-0.6758 0.6758,-0.6758l0,0zm7.02941,1.13889l-6.56633,0l0,6.79787l6.56633,0l0,-6.79787l0,0zm-10.11925,-0.73562l0,-2.00302c0,-0.37335 0.30245,-0.6758 0.6758,-0.6758l2.07836,0l0,1.35271l-1.40145,0l0,1.32612l-1.35271,0l0,0zm12.21645,0l0,-1.32612l-1.40256,0l0,-1.35271l2.07836,0c0.37335,0 0.6758,0.30245 0.6758,0.6758l0,2.00192l-1.3516,0l0,0.00111zm1.3516,8.25582l0,2.00192c0,0.37335 -0.30245,0.6758 -0.6758,0.6758l-2.07836,0l0,-1.35271l1.40256,0l0,-1.32501l1.3516,0l0,0z"/>
  </g>
 </g>
</svg>