<svg width="16" height="16" xmlns="http://www.w3.org/2000/svg" xml:space="preserve" enable-background="new 0 0 94.051 122.879" version="1.1">
 <title>arrow-up-start</title>

 <g>
  <title>Layer 1</title>
  <g transform="rotate(90 8.49845 8)" stroke="null" id="svg_1">
   <path fill="#000000"  id="svg_2" d="m12.81263,12.70487c0.25053,0.25752 0.24498,0.66914 -0.01291,0.92005c-0.25723,0.25044 -0.66904,0.2447 -0.91938,-0.01311l-5.02346,-5.18035l0.46634,-0.45314l-0.46825,0.4541c-0.25091,-0.25876 -0.24489,-0.67191 0.01397,-0.92254c0.00775,-0.00727 0.01521,-0.01416 0.02286,-0.02105l4.98836,-5.10076c0.25053,-0.25771 0.66235,-0.26354 0.91957,-0.01311c0.2578,0.25091 0.26345,0.66244 0.01291,0.92005l-4.58171,4.68512l4.58171,4.72472l0,0l0,0zm-7.60244,-9.9771c0,-0.33414 -0.27091,-0.60505 -0.60514,-0.60505c-0.33404,0 -0.60505,0.27091 -0.60505,0.60505l0,10.54445c0,0.33414 0.271,0.60505 0.60505,0.60505c0.33423,0 0.60514,-0.27091 0.60514,-0.60505l0,-10.54445l0,0z"/>
  </g>
 </g>
</svg>