<svg width="16" height="16" xmlns="http://www.w3.org/2000/svg" clip-rule="evenodd" fill-rule="evenodd" image-rendering="optimizeQuality" text-rendering="geometricPrecision" shape-rendering="geometricPrecision">
 <title>images-start</title>

 <g>
  <title>Layer 1</title>
  <path fill="#ffffff" stroke="null" id="svg_1" d="m8.00029,15.44148c-2.05455,0 -3.9155,-0.8331 -5.26223,-2.17954c-1.34644,-1.34644 -2.17954,-3.20711 -2.17954,-5.26165c0,-2.05484 0.8331,-3.9155 2.17954,-5.26223c1.34673,-1.34644 3.20769,-2.17954 5.26223,-2.17954s3.91521,0.8331 5.26165,2.17954c1.34644,1.34673 2.17954,3.20769 2.17954,5.26223s-0.8331,3.91521 -2.17954,5.26165c-1.34644,1.34644 -3.20711,2.17954 -5.26165,2.17954zm-0.33574,-7.04034c-0.29911,-0.26656 -0.29097,-0.50375 0,-0.7738l2.39232,-2.23186c0.32586,-0.20435 0.66566,-0.0843 0.65665,0.34097l-0.0125,4.49018c-0.02849,0.46102 -0.29126,0.58747 -0.67962,0.37411l-2.35686,-2.1996zm-1.21186,2.2961l-0.86769,0c-0.16424,0 -0.29853,-0.13517 -0.29853,-0.29882l0,-4.79743c0,-0.16336 0.13517,-0.29853 0.29853,-0.29853l0.86769,0c0.16365,0 0.29882,0.1343 0.29882,0.29853l0,4.79743c0,0.16453 -0.1343,0.29882 -0.29882,0.29882zm-3.00886,1.85921c1.16564,1.16564 2.77718,1.88711 4.55646,1.88711c1.77927,0 3.39024,-0.72148 4.55616,-1.88711c1.16564,-1.16593 1.88711,-2.77689 1.88711,-4.55616c0,-1.77927 -0.72148,-3.39082 -1.88711,-4.55675c-1.16593,-1.16564 -2.77689,-1.88711 -4.55616,-1.88711c-1.77927,0 -3.39082,0.72148 -4.55646,1.88711c-1.16593,1.16593 -1.8874,2.77689 -1.8874,4.55675c0,1.77927 0.72148,3.39024 1.8874,4.55616z" fill-rule="nonzero"/>
 </g>
</svg>