<svg width="16" height="16" xmlns="http://www.w3.org/2000/svg" xml:space="preserve" enable-background="new 0 0 122.88 122.88" version="1.1">
 <title>warning</title>

 <g>
  <title>Layer 1</title>
  <g stroke="null" id="svg_1">
   <path fill="#ff5656" id="svg_2" d="m8,0.93777c3.89966,0 7.06229,3.16263 7.06229,7.06229c0,3.89966 -3.16263,7.06218 -7.06229,7.06218c-3.89978,0.00012 -7.06229,-3.16251 -7.06229,-7.06218c0,-3.89966 3.16251,-7.06229 7.06229,-7.06229l0,0zm-1.00612,10.40895l1.92569,0l0,1.70235l-1.92569,0l0,-1.70235l0,0zm1.92466,-0.87302l-1.9242,0c-0.19139,-2.33835 -0.59301,-3.38103 -0.59301,-5.71616c0,-0.86118 0.6983,-1.55982 1.55948,-1.55982s1.55982,0.69864 1.55982,1.55982c0.00011,2.33387 -0.40679,3.37965 -0.60209,5.71616l0,0z" clip-rule="evenodd" fill-rule="evenodd"/>
  </g>
 </g>
</svg>