<svg width="16" height="16" xmlns="http://www.w3.org/2000/svg" clip-rule="evenodd" fill-rule="evenodd" image-rendering="optimizeQuality" text-rendering="geometricPrecision" shape-rendering="geometricPrecision">
 <title>turn-right</title>

 <g>
  <title>Layer 1</title>
  <path fill="#000000" id="svg_1" d="m8.37876,10.54947l0.36788,-2.40357c-1.08062,0.10752 -2.28016,0.37429 -3.29242,1.08917c-1.1326,0.79961 -2.04875,2.17667 -2.3319,4.55224c-0.02065,0.17635 -0.18086,0.30261 -0.35744,0.28173c-0.136,-0.01614 -0.24233,-0.11535 -0.27413,-0.24067c-0.25823,-0.77398 -0.39067,-1.50523 -0.41844,-2.19163c-0.07761,-1.8845 0.62635,-3.42296 1.66567,-4.5952c1.02912,-1.16108 2.3891,-1.9614 3.63895,-2.38126c0.47896,-0.16139 0.94439,-0.26749 1.37113,-0.31709l-0.36646,-2.03712c-0.03133,-0.17421 0.08473,-0.3413 0.25894,-0.37239c0.0966,-0.01709 0.19082,0.01092 0.26108,0.06883l4.91538,4.06569c0.13671,0.11321 0.15593,0.31638 0.04272,0.45285l-0.03655,0.03774l-4.91443,4.28143c-0.13386,0.11677 -0.3375,0.10253 -0.45427,-0.03133a0.3211,0.3211 0 0 1 -0.07571,-0.25942z" fill-rule="nonzero"/>
 </g>
</svg>