<svg width="16" height="16" xmlns="http://www.w3.org/2000/svg" data-name="Layer 1">

 <title>delete</title>
 <g>
  <title>Layer 1</title>
  <path fill="#000000" stroke="null" id="svg_1" fill-rule="evenodd" d="m3.20938,5.19837l9.65849,0a0.97187,0.97187 0 0 1 0.2314,0.01851a0.68609,0.68609 0 0 1 0.33321,0.18049a0.62824,0.62824 0 0 1 0.18975,0.38643a0.88509,0.88509 0 0 1 -0.00694,0.16661l-0.82261,8.52118l0,0l0,0.01504l0,0.0324l0,0a0.81683,0.81683 0 0 1 -0.02314,0.10413l0,0l0,0.00694l0,0a0.68146,0.68146 0 0 1 -0.63287,0.47089l-8.21574,0a0.71386,0.71386 0 0 1 -0.14462,-0.02198a0.71386,0.71386 0 0 1 -0.13421,-0.05554l0,0a0.71502,0.71502 0 0 1 -0.35635,-0.56461l-0.80989,-8.50267a0.88972,0.88972 0 0 1 -0.00694,-0.19206a0.6213,0.6213 0 0 1 0.18859,-0.38065a0.69419,0.69419 0 0 1 0.34709,-0.1828a1.03434,1.03434 0 0 1 0.2071,-0.01504l-0.00231,0.01273zm-0.63865,-3.2812l3.64103,0l0,-0.32396l0,0a0.2823,0.2823 0 0 1 0,-0.03124a0.69419,0.69419 0 0 1 0.20363,-0.46279l0,0a0.69419,0.69419 0 0 1 0.48709,-0.20016l2.24108,0l0.03471,0a0.69419,0.69419 0 0 1 0.65948,0.69419l0,0l0,0l0,0.32396l3.70235,0l0.04512,0a0.54378,0.54378 0 0 1 0.49866,0.51254c0,0.02083 0,0.03702 0,0.05785l0,1.14079a0.29966,0.29966 0 0 1 -0.29966,0.29966l-11.56752,0a0.29966,0.29966 0 0 1 -0.29966,-0.29619l0,-1.1674l0,0a0.18049,0.18049 0 0 1 0,-0.03587l0,0a0.5461,0.5461 0 0 1 0.44891,-0.50213a1.20326,1.20326 0 0 1 0.20479,-0.00926zm4.8709,6.0973a0.55188,0.55188 0 0 1 1.09798,0l0,4.28084a0.55188,0.55188 0 0 1 -1.09798,0l0,-4.28084zm2.74552,-0.02314a0.5299,0.5299 0 0 1 0.57849,-0.46974a0.51717,0.51717 0 0 1 0.5218,0.51601l-0.2314,4.28084a0.52874,0.52874 0 0 1 -0.57849,0.46974a0.51717,0.51717 0 0 1 -0.5218,-0.51601l0.2314,-4.28084zm-5.37766,0.04628a0.51601,0.51601 0 0 1 0.52064,-0.51601a0.5299,0.5299 0 0 1 0.57849,0.46974l0.2314,4.28084a0.51717,0.51717 0 0 1 -0.5218,0.51601a0.52874,0.52874 0 0 1 -0.57849,-0.46974l-0.2314,-4.28084l0.00116,0z" class="cls-1"/>
 </g>
</svg>